<svg xmlns="http://www.w3.org/2000/svg" xmlns:xlink="http://www.w3.org/1999/xlink" version="1.1" x="0px" y="0px" viewBox="0 0 100 125" enable-background="new 0 0 100 100" xml:space="preserve"><rect x="7.508" y="81.029" width="3.15" height="13.968"/><rect x="89.342" y="81.029" width="3.15" height="13.968"/><rect x="86.191" y="5.979" width="3.15" height="75.048"/><rect x="84.212" y="81.028" width="1.979" height="0.99"/><rect x="23.938" y="81.03" width="3.767" height="0.99"/><rect x="16.405" y="81.03" width="3.767" height="0.99"/><rect x="61.609" y="81.029" width="3.767" height="0.99"/><rect x="54.075" y="81.029" width="3.767" height="0.99"/><rect x="46.541" y="81.029" width="3.767" height="0.99"/><rect x="39.007" y="81.029" width="3.767" height="0.99"/><rect x="31.473" y="81.029" width="3.768" height="0.99"/><rect x="76.676" y="81.028" width="3.768" height="0.99"/><rect x="69.143" y="81.028" width="3.768" height="0.99"/><rect x="10.658" y="81.03" width="1.98" height="0.99"/><rect x="87.361" y="94.008" width="1.98" height="0.991"/><rect x="24.437" y="94.01" width="3.934" height="0.99"/><rect x="16.571" y="94.01" width="3.933" height="0.99"/><rect x="63.765" y="94.008" width="3.933" height="0.991"/><rect x="55.899" y="94.009" width="3.933" height="0.991"/><rect x="48.033" y="94.009" width="3.934" height="0.991"/><rect x="40.168" y="94.009" width="3.933" height="0.991"/><rect x="32.303" y="94.009" width="3.933" height="0.991"/><rect x="79.496" y="94.008" width="3.933" height="0.991"/><rect x="71.631" y="94.008" width="3.933" height="0.991"/><rect x="10.658" y="94.01" width="1.98" height="0.99"/><path d="M11.006,77.223l-0.989-0.051c0.067-1.323,0.168-2.661,0.302-3.972l0.985,0.1C11.172,74.596,11.072,75.914,11.006,77.223z"/><path d="M11.807,69.401l-0.979-0.153c0.204-1.309,0.444-2.627,0.716-3.919l0.969,0.203C12.245,66.808,12.007,68.108,11.807,69.401z"/><path d="M13.422,61.706l-0.957-0.256c0.341-1.279,0.719-2.565,1.125-3.82l0.942,0.303C14.131,59.172,13.758,60.441,13.422,61.706z"/><path d="M15.84,54.225l-0.924-0.354c0.468-1.227,0.979-2.463,1.518-3.676l0.905,0.401C16.807,51.795,16.303,53.015,15.84,54.225z"/><path d="M19.025,47.051l-0.883-0.449c0.6-1.177,1.238-2.354,1.897-3.499l0.858,0.495C20.247,44.728,19.616,45.89,19.025,47.051z"/><path d="M22.949,40.248l-0.831-0.539c0.72-1.109,1.478-2.213,2.253-3.283l0.802,0.581C24.407,38.063,23.659,39.153,22.949,40.248z"/><path d="M27.564,33.888l-0.77-0.623c0.83-1.027,1.7-2.047,2.584-3.032l0.737,0.662C29.242,31.867,28.384,32.874,27.564,33.888z"/><path d="M32.82,28.038l-0.701-0.699c0.935-0.938,1.907-1.863,2.886-2.748l0.663,0.735C34.702,26.199,33.744,27.112,32.82,28.038z"/><path d="M38.657,22.766l-0.625-0.769c1.027-0.834,2.09-1.652,3.158-2.432l0.584,0.799C40.719,21.134,39.67,21.942,38.657,22.766z"/><path d="M45.013,18.128l-0.541-0.83c1.11-0.724,2.253-1.427,3.397-2.091l0.498,0.857C47.237,16.719,46.11,17.414,45.013,18.128z"/><path d="M51.824,14.18l-0.45-0.882c1.182-0.605,2.394-1.184,3.601-1.723l0.403,0.904C54.187,13.011,52.992,13.583,51.824,14.18z"/><path d="M59.017,10.967l-0.356-0.924c1.245-0.478,2.513-0.927,3.767-1.334l0.305,0.941C61.494,10.053,60.244,10.496,59.017,10.967z"/><path d="M66.502,8.534l-0.255-0.957c1.273-0.342,2.576-0.654,3.876-0.929l0.204,0.969C69.047,7.889,67.759,8.197,66.502,8.534z"/><path d="M74.193,6.905l-0.151-0.978c1.307-0.206,2.636-0.379,3.951-0.515l0.102,0.984C76.797,6.531,75.485,6.702,74.193,6.905z"/><path d="M82.016,6.091l-0.05-0.989C83.287,5.034,84.627,5,85.947,5v0.99C84.645,5.99,83.322,6.024,82.016,6.091z"/><text x="0" y="115" fill="#000000" font-size="5px" font-weight="bold" font-family="'Helvetica Neue', Helvetica, Arial-Unicode, Arial, Sans-serif">Created by Santiago Arias</text><text x="0" y="120" fill="#000000" font-size="5px" font-weight="bold" font-family="'Helvetica Neue', Helvetica, Arial-Unicode, Arial, Sans-serif">from the Noun Project</text></svg>